<svg version="1" xmlns="http://www.w3.org/2000/svg" width="853.333" height="853.333" viewBox="0 0 640.000000 640.000000"><path d="M287.5 79.9c-27.2 4.9-59.1 19.6-79.5 36.5-33.5 27.8-50.1 59.7-54 104.1-1.1 11.2-1 15.2.6 28.8 1.9 17.5 1.3 29.3-2.5 43.6-1 3.9-1.5 7.1-1 7.1 1.9 0 8.4-3.2 11.8-5.7 2.9-2.3 3.3-2.4 2.7-.7-1.9 4.8-2.8 12.2-2.4 19.9.1 4.6.6 8.6 1 9 .4.4 2.5-1.2 4.8-3.6l4.2-4.4 3.1 9.6c4.8 14.6 12.4 24.4 22.1 28.4 2 .9 3.6 1.4 3.6 1.1 0-.2-1.1-2.4-2.5-4.8-5.5-9.8-7.9-28.3-5.7-42.8l.7-4.5 1.7 2.5c.9 1.4 2.2 5.4 2.8 9 .6 3.5 2.2 9.8 3.6 14 5.8 18.5 15.1 23.8 43.4 24.7 23.4.8 37.1-2.3 45.9-10.2 7.6-6.9 12.5-16 16.6-30.9 2.2-7.9 5.9-11.6 11.5-11.6s9.3 3.7 11.5 11.6c5.3 19.5 13.6 31.5 25.1 36.4 7.1 3.1 19.7 5 32.8 5 19.4 0 32.1-3 39.2-9.2 4-3.5 8.7-12.9 10.5-21.1.7-3.1 1.6-5.7 2-5.7 2.1 0 3.1 15.8 1.6 25.5-.7 4.7-.7 4.9.9 3 2.8-3.4 8.5-16.4 9.7-22.1.6-3 1.4-5.4 1.7-5.4.3 0 1.7 1.7 3.1 3.8 2.8 3.8 12.8 11.7 11.6 9.1-6-14-6.1-14.3-6.2-23.9 0-8.5.3-10.1 2.9-15.5l3-6 .5 4.3.6 4.2 4.2-5.5c2.4-3 4.9-5.5 5.8-5.5 2.8 0 6.5-20 6.5-35.5 0-10.4-1-15.2-7-34-1.5-5-3.6-14.6-4.4-21.4-1.7-12.8-4.7-23.5-9.1-32.1-1.4-2.7-7.6-12.5-13.7-21.7-17-25.5-30.8-38.3-41.3-38.3-1.9 0-3.5-.4-3.5-.9 0-2.4-5.6-7.2-10.8-9.2-4.5-1.7-9-2.3-21.7-2.9-13.5-.6-17.9-1.2-28-4-11.2-3-13.3-3.3-31-3.6-15.3-.3-21 0-29 1.5zm104.1 97.9c2.1 1.6 5.4 4.5 7.1 6.5 8 9.1 9.3 15.1 10.3 47.7.5 14.6 1.1 27.3 1.5 28.3.5 1.2-.8.7-4.5-1.8-9.8-6.6-22.2-8.8-34.4-6.1-8.6 2-23.1 8.7-24.6 11.6-1.8 3.4.9 3.3 8.3-.4 17-8.4 33.5-8.7 50.4-1 5.2 2.4 6.3 3.3 6.8 5.9.3 1.6 1.6 5.2 2.9 7.8l2.4 4.8-3.2-.7c-4.8-1.1-39-.7-49.1.6-4.9.6-15 2.2-22.4 3.5-13.4 2.5-34.4 3.5-35.5 1.7-.3-.5 2.5-2.8 6.1-5.2 14.8-9.7 33.4-30.4 46.7-51.9 6.9-11.1 17.9-33.1 22.7-45.3 1.9-4.9 3.7-8.8 4-8.8.3 0 2.4 1.3 4.5 2.8zm-47.8 62.9c-4.5 6.4-24.3 26.8-35.3 36.5-7.3 6.4-9.5 7.8-11.5 7.4-1.4-.3-5.2-1-8.5-1.7l-6-1.1 7.5-2.7c15.5-5.4 29.5-15.2 45.5-31.6 6.1-6.3 11.1-11.4 11.3-11.4.2-.1-1.2 2-3 4.6zm-26 16.6c-3.9 3.2-20.8 13.6-30.9 19.1l-8.6 4.6-11.9-.7-11.9-.7L265 277c17-4.3 29.2-8.8 42.3-15.5 14-7.1 14.1-7.2 10.5-4.2zm-40.4 30.3c12.2 2 15.7 3.1 13.6 4.5-1.2.8-1.1 1 .5.8 3.4-.3 5.5 1.2 7.7 5.4 3.1 6.1 2.2 18.2-2 27.1-7.8 16.7-22 22.5-52 21.4-29.2-1.2-38.7-10-39.9-37.3-.8-18.7 1.5-20.4 32.7-23.9 6.5-.8 29.4.4 39.4 2zm138.7-.4l6.6 1 6.3 8 6.3 8-.6 7.9c-1.2 17.7-7.7 27.9-20.4 32-13.3 4.3-40.9 3.6-54.1-1.3-11.7-4.4-20-17.2-20.9-32.1-.5-7.1-.3-8.9 1.5-12.4 3.4-6.6 7.9-8.5 27.2-11.7l3.5-.6-4.2 2.5c-9.2 5.6-12.5 18.1-7.3 27.5 6.6 11.8 21.7 14.5 31.7 5.7 7-6.2 9.2-16.1 5.3-24.2-2.4-4.9-5.2-7.8-10.6-10.5l-3.9-2.1 13.5.6c7.4.3 16.5 1.1 20.1 1.7zM373 297c2.2 4-2.6 8-5.8 4.8-1.6-1.6-1.5-5.5.1-6.1 2.6-1.1 4.7-.6 5.7 1.3z"/><path d="M250.5 288.9c-14.1 6.5-16.8 25.1-5 34.9 13.5 11.1 33.7 1.8 33.9-15.7.2-15-15.4-25.4-28.9-19.2zm3.3 11.3c.6 4.7-5.9 6.2-7.3 1.7-.9-2.7 1.3-5.1 4.4-4.7 2 .2 2.7.9 2.9 3zM450.9 371.8c-3.4 9.1-12.7 32-16 39.2l-3.9 8.5 6.6-6.9c9.3-10 20.8-28.1 25.5-40.3.9-2.5.8-2.5-2.5-1.9-1.8.4-4.5.2-6-.4-2.4-.9-2.8-.7-3.7 1.8zM305.5 375.9c.8 1.5 9.1 3.1 15.5 3.1s14.7-1.6 15.5-3.1c.3-.4-6.7-.8-15.5-.8s-15.8.4-15.5.8zM177.6 379.5c3.7 12.2 13.1 28 22.6 37.9l5.9 6.1-3-5c-4.2-7.2-8.6-18.6-11.1-29-1.1-5-2.3-9.7-2.5-10.5-.4-1.1-2-1.5-6.5-1.5-5.5 0-5.9.2-5.4 2zM276 412.8c0 2.7 9.2 8.3 18.5 11.2 9.9 3.2 34.5 4 46.6 1.6 9.2-1.9 17.2-5.8 20.3-9.9 2.6-3.5 1.5-4.5-1.7-1.3-6.6 6.6-18.2 9.6-37.9 9.6-19 0-32.5-2.8-40.3-8.5-4.4-3.2-5.5-3.7-5.5-2.7zM368.5 484.6c-3.3 2.6-16.6 9-23.5 11.4-3.6 1.2-7.2 2.5-8 2.7-5.6 2-25.7 2.8-34.8 1.3-8.6-1.3-13-2.6-21.6-6.4-6.9-3.1-8.3-3.3-4.1-.8 3.6 2.2 15 6.9 18.5 7.6 1.4.3 3.9.9 5.6 1.4 9.7 3 28.4 1.9 41.1-2.4 9.4-3.2 27.1-12.6 28.8-15.4.8-1.4.4-1.2-2 .6zM397.8 608.1l-15.5 31.4 45.3.3c24.9.1 66.1.1 91.5 0l46.3-.3-5.5-5.4c-6.5-6.5-15-12.1-30.1-20-32.9-17.2-85.8-35.3-107.9-36.8l-8.6-.6-15.5 31.4zM217.6 579.6c-37.9 8.2-109.4 39.8-129.6 57.3l-3.5 3 89.2.1h89.2l-3.9-8.2c-17.5-37.8-24.3-51.5-25.7-52.6-2.1-1.5-7-1.4-15.7.4z"/></svg>